<?xml version="1.0" encoding="utf-8"?>
<!-- Generator: Adobe Illustrator 24.0.1, SVG Export Plug-In . SVG Version: 6.00 Build 0)  -->
<svg version="1.1" xmlns="http://www.w3.org/2000/svg" xmlns:xlink="http://www.w3.org/1999/xlink" x="0px" y="0px"
	 viewBox="0 0 1162.2 1162.2" style="enable-background:new 0 0 1162.2 1162.2;" xml:space="preserve">
<style type="text/css">
	.st0{display:none;}
</style>
<g id="Capa_1" class="st0">
</g>
<g id="Capa_2">
	<path class="st0" d="M168.74,429.4c0,0,383.35-37.27,419.4,60.64c20.36,55.28-175.79,114.89-175.79,114.89
		s188.3,315.96,578.72,164.89c-341.49,40.91-473.4-164.89-473.4-164.89s280.27-115.2,253.19-185.11
		C716.5,279.44,169.81,425.15,168.74,429.4z"/>
	<path class="st0" d="M570.44,143.75L150.8,563.39c-9.78,9.78-9.78,25.64,0,35.42l419.64,419.64c9.78,9.78,25.64,9.78,35.42,0
		l419.64-419.64c9.78-9.78,9.78-25.64,0-35.42L605.86,143.75C596.08,133.97,580.22,133.97,570.44,143.75z M570.44,982.54
		L186.71,598.81c-9.78-9.78-9.78-25.64,0-35.42l383.73-383.73c9.78-9.78,25.64-9.78,35.42,0l383.73,383.73
		c9.78,9.78,9.78,25.64,0,35.42L605.86,982.54C596.08,992.32,580.22,992.32,570.44,982.54z"/>
	<path d="M1037.31,550.12l-431.6-432.39c-13.52-13.55-35.47-13.56-49-0.02L423.19,251.22h106.88l26.66-26.66
		c13.53-13.53,35.46-13.53,48.98,0L930.8,549.65c13.53,13.53,13.53,35.46,0,48.98L731.33,798.1l-71.99-125.99
		c31.85-12.88,58.28-34.56,79.29-65.06c21.69-30.5,31.85-64.38,31.85-102.34c0-49.47-17.62-91.49-52.86-127.41
		c-35.24-35.24-77.94-52.86-127.41-52.86l-237.82,0.11L125.04,549.63c-13.65,13.51-13.7,35.56-0.1,49.13l456.73,455.89l51.47-51.47
		L231.47,598.63c-13.44-13.54-13.4-35.4,0.09-48.89l134.42-134.42h227.76c22.9,0.81,42.74,9.6,59.5,26.36
		c18.3,17.62,27.11,38.63,27.11,63.03c0,25.08-8.81,46.76-27.11,64.38c-17.62,17.62-38.63,26.43-63.03,26.43l-80.65-0.68
		l196.22,335.68l64.71-63.91l266.84-267.57C1050.81,585.52,1050.81,563.64,1037.31,550.12z"/>
</g>
</svg>
